<svg width="25" height="25" viewBox="0 0 25 25" fill="none" xmlns="http://www.w3.org/2000/svg">
<path fill-rule="evenodd" clip-rule="evenodd" d="M17.7083 4.16667C18.5031 4.16667 19.1604 4.61875 19.6417 5.09375C20.1427 5.58646 20.6021 6.24896 21.0104 6.97917C21.8302 8.44375 22.5438 10.3573 23.0156 12.2479C23.4844 14.124 23.7438 16.0833 23.5781 17.624C23.4115 19.1708 22.6146 20.8333 20.8333 20.8333C19.2958 20.8333 18.0708 20.0417 17.0688 19.2385L16.7031 18.9375L16.1906 18.5052L15.7281 18.1219C14.6667 17.2625 13.724 16.6667 12.5 16.6667C11.276 16.6667 10.3333 17.2625 9.27188 18.1219L8.80938 18.5052L8.29688 18.9375L7.93229 19.2385C6.92813 20.0417 5.70313 20.8333 4.16667 20.8333C2.38438 20.8333 1.5875 19.1708 1.42188 17.624C1.25729 16.0823 1.51563 14.124 1.98438 12.2479C2.45625 10.3573 3.16979 8.44375 3.98959 6.97813C4.39792 6.24896 4.85729 5.58646 5.35834 5.09271C5.83959 4.61875 6.49688 4.16667 7.29167 4.16667C7.82813 4.16667 8.35208 4.29479 8.86771 4.44792L9.48438 4.63646C9.58715 4.6684 9.68958 4.69861 9.79167 4.72708C10.6927 4.98542 11.6146 5.20833 12.5 5.20833C13.3854 5.20833 14.3073 4.98542 15.2083 4.72708L16.1302 4.44896C16.649 4.29583 17.1771 4.16667 17.7083 4.16667ZM17.7083 6.25C17.3094 6.25 16.8927 6.37083 16.4885 6.50313L16.0115 6.66042L15.7813 6.73125C14.8594 6.99375 13.6979 7.29167 12.5 7.29167C11.3021 7.29167 10.1406 6.99375 9.21875 6.73125L8.98958 6.66042L8.51146 6.50313C8.10729 6.36979 7.69063 6.25 7.29167 6.25C6.85625 6.33125 6.46563 6.85938 6.17084 7.34896L6.00625 7.63542L5.80834 7.99583C5.09792 9.26458 4.44375 10.9958 4.00625 12.7531C3.59479 14.3948 3.39479 15.9677 3.47084 17.1385L3.49792 17.4437L3.51875 17.6271L3.55 17.8437C3.62188 18.2615 3.77709 18.75 4.16667 18.75C5.0125 18.75 5.71875 18.3292 6.59688 17.6312L7.01667 17.2896L7.80833 16.6271L8.16667 16.3354C9.275 15.4573 10.6615 14.5833 12.5 14.5833C14.3385 14.5833 15.725 15.4583 16.8333 16.3354L17.1927 16.6271L17.9844 17.2896L18.4031 17.6312C19.2813 18.3292 19.9865 18.75 20.8333 18.75C21.1875 18.75 21.3479 18.3469 21.4281 17.9594L21.4677 17.7323L21.5063 17.4021C21.6344 16.2083 21.4365 14.5219 20.9948 12.7531C20.5927 11.1427 20.0094 9.55313 19.3677 8.32188L18.9937 7.63438L18.8292 7.35C18.5344 6.85938 18.1438 6.33125 17.7083 6.25ZM8.85417 8.33333C9.54484 8.33333 10.2072 8.6077 10.6956 9.09608C11.184 9.58445 11.4583 10.2468 11.4583 10.9375C11.4583 11.6282 11.184 12.2905 10.6956 12.7789C10.2072 13.2673 9.54484 13.5417 8.85417 13.5417C8.1635 13.5417 7.50112 13.2673 7.01274 12.7789C6.52437 12.2905 6.25 11.6282 6.25 10.9375C6.25 10.2468 6.52437 9.58445 7.01274 9.09608C7.50112 8.6077 8.1635 8.33333 8.85417 8.33333ZM16.1458 8.33333C16.401 8.33337 16.6472 8.42704 16.8379 8.59658C17.0286 8.76612 17.1504 8.99974 17.1802 9.25313L17.1875 9.375V9.89583H17.7083C17.9738 9.89613 18.2292 9.99779 18.4223 10.1801C18.6153 10.3623 18.7315 10.6114 18.7471 10.8765C18.7626 11.1415 18.6764 11.4025 18.506 11.6061C18.3356 11.8097 18.0939 11.9405 17.8302 11.9719L17.7083 11.9792H17.1875V12.5C17.1872 12.7655 17.0855 13.0209 16.9033 13.2139C16.721 13.407 16.4719 13.5232 16.2069 13.5387C15.9418 13.5543 15.6809 13.468 15.4773 13.2976C15.2737 13.1272 15.1428 12.8855 15.1115 12.6219L15.1042 12.5V11.9792H14.5833C14.3178 11.9789 14.0625 11.8772 13.8694 11.695C13.6764 11.5127 13.5602 11.2636 13.5446 10.9985C13.5291 10.7335 13.6153 10.4725 13.7857 10.2689C13.9561 10.0653 14.1978 9.93448 14.4615 9.90313L14.5833 9.89583H15.1042V9.375C15.1042 9.09873 15.2139 8.83378 15.4093 8.63843C15.6046 8.44308 15.8696 8.33333 16.1458 8.33333ZM8.85417 10.4167C8.71603 10.4167 8.58356 10.4715 8.48588 10.5692C8.38821 10.6669 8.33333 10.7994 8.33333 10.9375C8.33333 11.0756 8.38821 11.2081 8.48588 11.3058C8.58356 11.4035 8.71603 11.4583 8.85417 11.4583C8.9923 11.4583 9.12478 11.4035 9.22245 11.3058C9.32013 11.2081 9.375 11.0756 9.375 10.9375C9.375 10.7994 9.32013 10.6669 9.22245 10.5692C9.12478 10.4715 8.9923 10.4167 8.85417 10.4167Z" fill="white"></path>
</svg>