<svg width="50" height="50" viewBox="0 0 50 50" fill="none" xmlns="http://www.w3.org/2000/svg">
<rect width="50" height="50" rx="25" fill="white"/>
<rect width="25.7" height="25.7" transform="translate(12.1499 12.15)" fill="white"/>
<path fill-rule="evenodd" clip-rule="evenodd" d="M20.7165 19.6459C20.7165 18.5099 21.1678 17.4204 21.971 16.6171C22.7743 15.8138 23.8638 15.3625 24.9998 15.3625C26.1358 15.3625 27.2253 15.8138 28.0286 16.6171C28.8319 17.4204 29.2831 18.5099 29.2831 19.6459C29.2831 20.7819 28.8319 21.8714 28.0286 22.6747C27.2253 23.4779 26.1358 23.9292 24.9998 23.9292C23.8638 23.9292 22.7743 23.4779 21.971 22.6747C21.1678 21.8714 20.7165 20.7819 20.7165 19.6459ZM20.7165 26.0709C19.2965 26.0709 17.9346 26.635 16.9305 27.6391C15.9264 28.6432 15.3623 30.005 15.3623 31.4251C15.3623 32.2771 15.7008 33.0942 16.3032 33.6966C16.9057 34.2991 17.7228 34.6376 18.5748 34.6376H31.4248C32.2768 34.6376 33.0939 34.2991 33.6964 33.6966C34.2988 33.0942 34.6373 32.2771 34.6373 31.4251C34.6373 30.005 34.0732 28.6432 33.0691 27.6391C32.065 26.635 30.7032 26.0709 29.2831 26.0709H20.7165Z" fill="#333333"/>
</svg>
